<?xml version="1.0" encoding="UTF-8" standalone="no"?>
<!-- Generator: Adobe Illustrator 22.0.1, SVG Export Plug-In . SVG Version: 6.00 Build 0)  -->

<svg
   xmlns:dc="http://purl.org/dc/elements/1.1/"
   xmlns:cc="http://creativecommons.org/ns#"
   xmlns:rdf="http://www.w3.org/1999/02/22-rdf-syntax-ns#"
   xmlns:svg="http://www.w3.org/2000/svg"
   xmlns="http://www.w3.org/2000/svg"
   xmlns:sodipodi="http://sodipodi.sourceforge.net/DTD/sodipodi-0.dtd"
   xmlns:inkscape="http://www.inkscape.org/namespaces/inkscape"
   version="1.1"
   id="Layer_1"
   x="0px"
   y="0px"
   viewBox="0 0 735 852"
   style="enable-background:new 0 0 735 852;"
   xml:space="preserve"
   sodipodi:docname="logo.svg"
   inkscape:version="0.92.4 (5da689c313, 2019-01-14)"><metadata
   id="metadata58"><rdf:RDF><cc:Work
       rdf:about=""><dc:format>image/svg+xml</dc:format><dc:type
         rdf:resource="http://purl.org/dc/dcmitype/StillImage" /><dc:title>ChromR</dc:title></cc:Work></rdf:RDF></metadata><defs
   id="defs56"><marker
     inkscape:stockid="Arrow2Lend"
     orient="auto"
     refY="0.0"
     refX="0.0"
     id="Arrow2Lend"
     style="overflow:visible;"
     inkscape:isstock="true"><path
       id="path909"
       style="fill-rule:evenodd;stroke-width:0.625;stroke-linejoin:round;stroke:#000000;stroke-opacity:1;fill:#000000;fill-opacity:1"
       d="M 8.7185878,4.0337352 L -2.2072895,0.016013256 L 8.7185884,-4.0017078 C 6.9730900,-1.6296469 6.9831476,1.6157441 8.7185878,4.0337352 z "
       transform="scale(1.1) rotate(180) translate(1,0)" /></marker><marker
     inkscape:stockid="Arrow1Lend"
     orient="auto"
     refY="0.0"
     refX="0.0"
     id="Arrow1Lend"
     style="overflow:visible;"
     inkscape:isstock="true"><path
       id="path891"
       d="M 0.0,0.0 L 5.0,-5.0 L -12.5,0.0 L 5.0,5.0 L 0.0,0.0 z "
       style="fill-rule:evenodd;stroke:#000000;stroke-width:1pt;stroke-opacity:1;fill:#000000;fill-opacity:1"
       transform="scale(0.8) rotate(180) translate(12.5,0)" /></marker></defs><sodipodi:namedview
   pagecolor="#ffffff"
   bordercolor="#666666"
   borderopacity="1"
   objecttolerance="10"
   gridtolerance="10"
   guidetolerance="10"
   inkscape:pageopacity="0"
   inkscape:pageshadow="2"
   inkscape:window-width="1858"
   inkscape:window-height="1057"
   id="namedview54"
   showgrid="false"
   inkscape:snap-bbox="true"
   inkscape:zoom="0.78346103"
   inkscape:cx="58.184436"
   inkscape:cy="401.18337"
   inkscape:window-x="-8"
   inkscape:window-y="-8"
   inkscape:window-maximized="1"
   inkscape:current-layer="Layer_1" />
<style
   type="text/css"
   id="style2">
	.st0{fill:#428BCA;}
	.st1{opacity:0.25;fill:url(#SVGID_1_);enable-background:new    ;}
	.st2{fill:#3674A8;}
	.st3{fill:#E6B35A;}
	.st4{fill:#FFFFFF;}
	.st5{opacity:0.9;fill:#FFFFFF;enable-background:new    ;}
</style>
<title
   id="title4">ChromR</title>
<path
   class="st0"
   d="M715.1,226.8L366.9,16l-347,210.8v401.5L367.5,829l347.6-200.7V226.8z"
   id="path6"
   style="fill:#367fa9;fill-opacity:1" />
<linearGradient
   id="SVGID_1_"
   gradientUnits="userSpaceOnUse"
   x1="366.1405"
   y1="-182.39"
   x2="367.4405"
   y2="281.13"
   gradientTransform="matrix(1 0 0 1 0 60)">
	<stop
   offset="0"
   style="stop-color:#FFFFFF;stop-opacity:0.83"
   id="stop8" />
	<stop
   offset="0.56"
   style="stop-color:#FFFFFF;stop-opacity:0.37"
   id="stop10" />
	<stop
   offset="1"
   style="stop-color:#FFFFFF;stop-opacity:0"
   id="stop12" />
</linearGradient>

<path
   class="st2"
   d="M734.9,637.4V213.1l-29.3-16.9L427.8,35.8L367.5,1l-60.3,34.8L29.4,196.2L0.1,213.1v424.2l29.3,16.9  l281.3,162.4l56.9,32.8l56.9-32.8l281.3-162.4L734.9,637.4z M29.4,621.5V231l50-28.9L367.5,35.8l0,0l287.2,165.8l50.9,29.4v390.5  L367.5,816.7L29.4,621.5z"
   id="path17"
   style="fill:#3668a9;fill-opacity:1" />
<path
   class="st3"
   d="M367,633.9c0.3-0.3,0.6-0.6,0.9-0.9h-0.3C367.5,633.3,367.3,633.6,367,633.9z"
   id="path19" />
















<text
   xml:space="preserve"
   style="font-style:normal;font-weight:normal;font-size:153.30010986px;line-height:1.25;font-family:sans-serif;letter-spacing:0px;word-spacing:0px;fill:#000000;fill-opacity:1;stroke:none;stroke-width:3.83250284"
   x="70.281189"
   y="625.63086"
   id="text870"><tspan
     sodipodi:role="line"
     id="tspan868"
     x="70.281189"
     y="625.63086"
     style="font-style:normal;font-variant:normal;font-weight:500;font-stretch:normal;font-size:153.30667114px;font-family:'Roboto Slab';-inkscape-font-specification:'Roboto Slab, Medium';font-variant-ligatures:normal;font-variant-caps:normal;font-variant-numeric:normal;font-feature-settings:normal;text-align:start;writing-mode:lr-tb;text-anchor:start;fill:#ffffff;fill-opacity:1;stroke-width:3.83250284">ChromR</tspan></text>

<flowRoot
   xml:space="preserve"
   id="flowRoot878"
   style="fill:black;fill-opacity:1;stroke:none;font-family:sans-serif;font-style:normal;font-weight:normal;font-size:40px;line-height:1.25;letter-spacing:0px;word-spacing:0px"><flowRegion
     id="flowRegion880"><rect
       id="rect882"
       width="68.924934"
       height="61.266609"
       x="339.5191"
       y="301.87692" /></flowRegion><flowPara
     id="flowPara884" /></flowRoot><path
   style="color:#000000;font-style:normal;font-variant:normal;font-weight:normal;font-stretch:normal;font-size:medium;line-height:normal;font-family:sans-serif;font-variant-ligatures:normal;font-variant-position:normal;font-variant-caps:normal;font-variant-numeric:normal;font-variant-alternates:normal;font-feature-settings:normal;text-indent:0;text-align:start;text-decoration:none;text-decoration-line:none;text-decoration-style:solid;text-decoration-color:#000000;letter-spacing:normal;word-spacing:normal;text-transform:none;writing-mode:lr-tb;direction:ltr;text-orientation:mixed;dominant-baseline:auto;baseline-shift:baseline;text-anchor:start;white-space:normal;shape-padding:0;clip-rule:nonzero;display:inline;overflow:visible;visibility:visible;opacity:1;isolation:auto;mix-blend-mode:normal;color-interpolation:sRGB;color-interpolation-filters:linearRGB;solid-color:#000000;solid-opacity:1;vector-effect:none;fill:#ffffff;fill-opacity:1;fill-rule:nonzero;stroke:none;stroke-width:1.6931504;stroke-linecap:round;stroke-linejoin:miter;stroke-miterlimit:4;stroke-dasharray:none;stroke-dashoffset:0;stroke-opacity:1;color-rendering:auto;image-rendering:auto;shape-rendering:auto;text-rendering:auto;enable-background:accumulate"
   d="m 276.32623,124.74855 c -0.003,0.001 -0.83177,1.33626 -0.86914,1.52833 -0.0374,0.19208 -0.0444,0.27613 -0.0527,0.35709 -0.0332,0.32383 -0.0349,0.50312 -0.0449,0.80844 -0.04,1.22136 -0.0654,3.69818 -0.0859,7.42172 -0.041,7.44709 -0.0517,19.70996 -0.041,35.27457 0.0214,31.12924 0.12933,75.45493 0.26563,120.72141 0.23762,78.9178 0.49223,141.43278 0.57031,161.11805 -0.97932,-8.19108 -2.05194,-18.03222 -3.23633,-31.96651 -3.49169,-41.07967 -7.39473,-109.18884 -9.01367,-217.13227 -0.0197,-1.31318 -0.0439,-2.28035 -0.0742,-2.97097 -0.0152,-0.34532 -0.029,-0.60701 -0.0586,-0.89415 -0.0148,-0.14363 -0.0228,-0.27413 -0.0899,-0.56849 -0.0335,-0.14718 -0.0621,-0.33625 -0.25,-0.70846 -0.18791,-0.37222 -1.64996,-0.94396 -1.65429,-0.94272 -0.004,0.001 -0.99202,0.86637 -1.10352,1.13697 -0.1115,0.2706 -0.13902,0.41704 -0.16602,0.53706 -0.054,0.24005 -0.0672,0.36594 -0.084,0.50278 -0.0335,0.2737 -0.0552,0.53885 -0.0781,0.87129 -0.0458,0.66491 -0.0904,1.56758 -0.13868,2.73673 -0.19331,4.67661 -0.43056,13.52769 -0.69922,25.33039 -0.5373,23.60537 -1.19574,58.95119 -1.83398,95.59385 -1.25684,72.1582 -2.40146,147.05996 -2.4375,149.41699 l -113.75977,1.17696 c -0.18941,-3.61839 -4.52627,-86.56879 -6.89843,-153.43066 -0.15687,-4.42155 -0.31851,-7.69427 -0.49024,-9.99561 -0.0859,-1.15066 -0.17173,-2.05323 -0.27344,-2.78814 -0.1017,-0.73491 0.0117,-1.1472 -0.62304,-2.22251 -0.1587,-0.26883 -0.42556,-0.63655 -0.87696,-0.81701 -0.45139,-0.18046 -1.01176,-0.0132 -1.33203,0.2628 -0.64054,0.5519 -0.69561,1.02873 -0.79882,1.36837 -0.20642,0.67927 -0.28047,1.23987 -0.37891,2.00826 -0.19688,1.53678 -0.374,3.71658 -0.55469,6.54756 -0.72274,11.32393 -1.43763,32.81738 -2.07812,56.54272 -1.25251,46.39555 -2.15548,98.95665 -2.19727,101.3701 l -80.927732,2.10541 c -2.19565,0.053 -2.136957,4.87212 0.05859,4.81068 26.12757,-1.40865 60.604672,-1.35304 83.428602,-4.03946 0,0 1.64543,-56.66171 2.92496,-104.05818 0.43031,-15.93998 0.91616,-26.40633 1.39062,-37.85703 2.50444,65.9711 7.36153,143.25214 7.36153,143.25214 3.33149,0.24798 77.07963,0.0296 115.72996,-0.41729 l 3.54527,-1.37663 c 0,0 1.20027,-78.46207 2.47656,-151.73664 0.37127,-21.31535 0.70961,-37.21772 1.06641,-55.59429 1.94784,71.0595 4.88887,120.38324 7.625,152.57364 3.50958,41.29006 6.66211,55.80285 6.66211,55.80283 l 3.21094,-0.74559 c 0,0 -0.38172,-94.29784 -0.6543,-184.82583 -0.0575,-19.10102 -0.068,-33.09089 -0.11133,-50.935 l 6.82617,238.61468 30.93555,-0.84558 0.0391,-2.30537 c 0,0 0.66558,-40.72576 1.51367,-76.35395 0.20627,-8.66506 0.43365,-13.92828 0.6543,-21.32814 3.41219,49.52691 10.88477,97.66209 10.88477,97.66209 l 0.29882,1.90829 60.09763,-1.84113 2.07562,-1.5042 c 0,0 1.36286,-54.73043 2.47908,-106.46634 0.413,-19.14217 0.81248,-35.27243 1.20312,-50.92073 1.52466,34.09199 3.12929,67.43737 4.5,94.36832 0.9605,18.87139 1.77959,34.75335 2.3125,45.90437 0.26646,5.57551 0.4618,9.97107 0.56641,12.94658 0.0523,1.48776 0.0806,2.62653 0.0859,3.33948 0.003,0.35648 -0.003,0.61938 -0.006,0.68561 -0.002,0.0331 -0.0102,0.0352 0.0215,-0.15997 0.2619,1.33912 0.90977,2.165 1.57031,3.03667 h -0.0254 0.0254 l 24.92178,-0.10556 0.48447,-1.71416 c 0,0 1.11594,-80.83083 2.63282,-150.6111 0.64698,-29.76273 1.37223,-55.68852 2.10742,-74.26284 2.93772,81.54011 7.80859,223.73411 7.80859,223.73411 l 1.09346,1.16862 113.11159,0.12547 0.0117,-2.37105 c 0,0 0.44221,-89.49165 1.23242,-170.27951 0.35152,-35.93752 0.79461,-67.23615 1.27539,-91.06596 4.67362,105.91421 13.64258,262.04535 13.64258,262.04535 l 0.125,2.17395 117.80664,2.23394 c 2.19553,0.0462 2.2386,-4.77289 0.043,-4.81068 L 576.21295,470.7267 c -0.21659,-3.7471 -10.63786,-184.12712 -14.75195,-286.70157 -0.17573,-4.38127 -0.3236,-6.99289 -0.54102,-8.56153 -0.0543,-0.39218 -0.0776,-0.68507 -0.26953,-1.23696 -0.096,-0.27594 -0.19973,-0.74589 -0.80273,-1.17982 -0.30151,-0.21697 -0.7651,-0.31762 -1.14454,-0.18283 -0.37943,0.13486 -0.63376,0.41821 -0.79101,0.64277 -0.62903,0.8982 -0.5,1.18681 -0.56445,1.55405 -0.0645,0.36722 -0.10805,0.73696 -0.15235,1.17695 -0.35441,3.51994 -0.63071,11.65505 -0.91015,23.56494 -0.55889,23.8198 -1.04032,62.04913 -1.43555,102.45566 -0.77946,79.68794 -1.20274,165.50127 -1.21484,167.93985 l -107.74219,0.94557 c -0.10215,-2.99105 -5.231,-153.22039 -8.08008,-231.57577 -0.20156,-5.5432 -0.40636,-9.47487 -0.625,-12.06957 -0.10932,-1.29735 -0.21091,-2.2361 -0.36523,-3.03382 -0.0772,-0.39886 -0.12652,-0.74745 -0.40235,-1.31409 -0.13791,-0.28331 -0.35845,-0.69368 -0.8418,-0.95985 -0.48334,-0.26617 -1.17578,-0.0998 -1.5332,0.22854 -0.71485,0.65672 -0.71679,1.15633 -0.82031,1.54547 -0.10352,0.38915 -0.16768,0.75482 -0.23242,1.17412 -0.12949,0.83855 -0.24119,1.87707 -0.35352,3.17664 -0.22465,2.59916 -0.44353,6.2088 -0.66211,10.70692 -0.87432,17.99251 -1.73132,50.12671 -2.49023,85.03834 -1.4937,68.71388 -2.55902,145.76618 -2.59375,148.27146 l -20.48438,-0.46279 c -0.0151,-0.71271 -0.0266,-1.3533 -0.0625,-2.37392 -0.10682,-3.03846 -0.3013,-7.44702 -0.56836,-13.03514 -0.53412,-11.17622 -1.35409,-27.05856 -2.31445,-45.92721 -1.92072,-37.7373 -4.40554,-87.41941 -6.29492,-135.21632 -0.0249,-0.6285 0.0422,-0.76217 -0.15235,-1.65403 -0.0486,-0.22296 0.0899,-0.6597 -0.74023,-1.39121 -0.41507,-0.36576 -1.24633,-0.37944 -1.66211,-0.0401 -0.41578,0.33945 -0.53423,0.67134 -0.61914,0.87701 -0.33962,0.82272 -0.23136,0.85646 -0.25977,1.08555 -0.11362,0.91637 -0.1735,2.19113 -0.26562,4.28506 -0.18425,4.18785 -0.40459,11.11557 -0.64844,19.95693 -0.48768,17.68271 -1.0687,42.97789 -1.62695,68.85225 -1.09229,50.6268 -2.05266,101.24818 -2.0957,103.51548 l -56.64063,1.56549 c -0.80399,-5.24785 -9.9436,-65.71628 -11.86133,-119.43304 -0.0919,-2.57347 -0.18661,-4.34191 -0.30078,-5.53915 -0.0571,-0.59863 -0.0697,-0.97051 -0.26367,-1.64546 -0.0485,-0.16874 -0.10668,-0.36826 -0.25781,-0.65134 -0.15114,-0.28306 -0.43983,-0.73727 -0.98828,-0.91128 -0.54846,-0.17402 -1.15111,0.17568 -1.42383,0.49992 -0.27272,0.32425 -0.36927,0.5837 -0.44336,0.77989 -0.29635,0.78473 -0.27272,1.0805 -0.33789,1.60545 -0.0652,0.52496 -0.12382,1.14472 -0.18164,1.88829 -0.11565,1.48713 -0.22923,3.45994 -0.34375,5.86767 -0.45808,9.6309 -0.92704,26.17924 -1.35157,44.01323 -0.82342,34.5918 -1.43209,71.75912 -1.4707,74.10287 l -24.57812,0.67132 -9.875,-345.09257 c -0.0276,-0.96438 0.002,-1.22777 -0.10157,-2.01112 -0.0129,-0.0978 -0.0135,-0.19355 -0.10351,-0.51135 -0.09,-0.3178 -2.24538,-1.256 -2.24805,-1.25409 z"
   id="path886"
   inkscape:connector-curvature="0"
   sodipodi:nodetypes="ccccssscsccccccsccccssccsccccccscsccccsccccscsccsccccscccccscsscccccccccscccccsccccccccccccccssccsscscccccsscccssccscccccscccccccccccssccccccc" /></svg>